# xmcd
#
# Track frame offsets:
#	150
#	20910
#	39030
#	52719
#	72249
#	89581
#	101911
#	120352
#	140447
#	151386
#	175956
#	192032
#	213647
#	229974
#	247388
#	266266
#	282681
#	302796
#
# Disc length: 4291 seconds
#
# Revision: 0
# Processed by: cddbd v1.5.2PL0 Copyright (c) Steve Scherf et al.
# Submitted via: EasyCDDAExtractor 12.0.7.1
#
DISCID=0910c112
DTITLE=Александр Новиков - Аллея шансона
DYEAR=2011
DGENRE=Chanson
TTITLE0=Вези меня, извозчик
TTITLE1=Город древний
TTITLE2=В Екатеринбурге
TTITLE3=Улица восточная
TTITLE4=Я вышел родом
TTITLE5=Папиросники
TTITLE6=Пускай ты выпита другим
TTITLE7=Пой же, пой
TTITLE8=Голубая кофта. Синие глаза
TTITLE9=Екатеринблюз
TTITLE10=Пять минут ходьбы
TTITLE11=А в Париже
TTITLE12=Луали
TTITLE13=Помнишь, девочка
TTITLE14=20 лет
TTITLE15=Уличная красотка
TTITLE16=Шансоньетка
TTITLE17=Крошка
EXTD=
EXTT0=
EXTT1=
EXTT2=
EXTT3=
EXTT4=
EXTT5=
EXTT6=
EXTT7=
EXTT8=
EXTT9=
EXTT10=
EXTT11=
EXTT12=
EXTT13=
EXTT14=
EXTT15=
EXTT16=
EXTT17=
PLAYORDER=
